# xmcd
#
# Track frame offsets:
#	150
#	21597
#	40121
#	56543
#	74091
#	94641
#	108364
#	136638
#	156135
#	171509
#	186450
#	201511
#
# Disc length: 2951 seconds
#
# Revision: 0
# Processed by: cddbd v1.5.2PL0 Copyright (c) Steve Scherf et al.
# Submitted via: EZCDAudioConverter 5.0.0.1
#
DISCID=b00b850c
DTITLE=Rob Tognoni - Brave
DYEAR=2016
DGENRE=Blues Rock
TTITLE0=Brave
TTITLE1=Voodoo Girl
TTITLE2=Burnin' Alive
TTITLE3=Dammed If I Do
TTITLE4=You
TTITLE5=1974
TTITLE6=Maid Marion, Robin Hood
TTITLE7=Fly Like An Eagle
TTITLE8=Happy Birthday
TTITLE9=Power
TTITLE10=Latino Lounge
TTITLE11=Don't Be Too Hard On Me
EXTD=
EXTT0=
EXTT1=
EXTT2=
EXTT3=
EXTT4=
EXTT5=
EXTT6=
EXTT7=
EXTT8=
EXTT9=
EXTT10=
EXTT11=
PLAYORDER=
